<?xml version="1.0" encoding="utf-8"?>
<!-- Generator: Adobe Illustrator 18.1.1, SVG Export Plug-In . SVG Version: 6.00 Build 0)  -->
<!DOCTYPE svg PUBLIC "-//W3C//DTD SVG 1.1//EN" "http://www.w3.org/Graphics/SVG/1.1/DTD/svg11.dtd">
<svg version="1.1" id="Layer_1" xmlns="http://www.w3.org/2000/svg" xmlns:xlink="http://www.w3.org/1999/xlink" x="0px" y="0px"
	 viewBox="0 0 210 16" enable-background="new 0 0 210 16" xml:space="preserve">
<line fill="none" stroke="#FFFFFF" stroke-width="2" x1="0" y1="1.5" x2="16" y2="1.5"/>
<line fill="none" stroke="#FFFFFF" stroke-width="2" x1="0" y1="7.5" x2="16" y2="7.5"/>
<line fill="none" stroke="#FFFFFF" stroke-width="2" x1="0" y1="13.5" x2="16" y2="13.5"/>
<g enable-background="new    ">
	<path fill="#FFFFFF" d="M34.5,0.5h2.8l6,14h-3.2l-1.3-3.1h-5.9l-1.3,3.1h-3.1L34.5,0.5z M37.7,8.7l-1.8-4.5L34,8.7H37.7z"/>
	<path fill="#FFFFFF" d="M45.4,0.6h6.3c1.8,0,3.1,0.5,4,1.4C56.6,2.8,57,3.9,57,5.2v0c0,2.2-1.2,3.7-3,4.3l3.4,5h-3.6l-3-4.4h0h-2.4
		v4.4h-3.1V0.6z M51.6,7.4c1.5,0,2.3-0.8,2.3-2v0c0-1.3-0.9-2-2.4-2h-3v4H51.6z"/>
	<path fill="#FFFFFF" d="M59.8,0.6h2.8l6.5,8.5V0.6h3v13.9h-2.6l-6.7-8.8v8.8h-3V0.6z"/>
	<path fill="#FFFFFF" d="M74.8,7.6L74.8,7.6c0-4,3.1-7.2,7.4-7.2s7.4,3.2,7.4,7.1v0c0,3.9-3.1,7.2-7.4,7.2S74.8,11.5,74.8,7.6z
		 M86.4,7.6L86.4,7.6c0-2.4-1.7-4.4-4.2-4.4S78,5.1,78,7.5v0c0,2.4,1.7,4.4,4.2,4.4C84.7,11.9,86.4,10,86.4,7.6z"/>
	<path fill="#FFFFFF" d="M92.3,0.6h3.1v11.1h6.9v2.8h-10V0.6z"/>
	<path fill="#FFFFFF" d="M104.6,0.6h5.4c4.4,0,7.4,3,7.4,6.9v0c0,3.9-3,6.9-7.4,6.9h-5.4V0.6z M110,11.7c2.5,0,4.2-1.7,4.2-4.1v0
		c0-2.5-1.7-4.2-4.2-4.2h-2.4v8.4H110z"/>
	<path fill="#FFFFFF" d="M117.9,12.6l1.9-2.1c0.8,0.9,1.6,1.4,2.5,1.4c1.2,0,1.9-0.7,1.9-2.3V0.6h3.1v9.1c0,1.6-0.5,2.9-1.3,3.7
		c-0.9,0.9-2.1,1.3-3.6,1.3C120.3,14.7,118.8,13.7,117.9,12.6z"/>
	<path fill="#FFFFFF" d="M129.7,11.3h3.2v3.2h-3.2V11.3z"/>
	<path fill="#FFFFFF" d="M134.4,7.6L134.4,7.6c0-4,3-7.2,7.2-7.2c2.6,0,4.2,0.9,5.5,2.1l-1.9,2.2c-1.1-1-2.2-1.6-3.6-1.6
		c-2.3,0-4,1.9-4,4.3v0c0,2.4,1.6,4.4,4,4.4c1.6,0,2.6-0.6,3.7-1.6l1.9,2c-1.4,1.5-3,2.5-5.7,2.5C137.5,14.7,134.4,11.6,134.4,7.6z"
		/>
	<path fill="#FFFFFF" d="M149.7,0.6h3.1v5.5h5.6V0.6h3.1v13.9h-3.1V8.9h-5.6v5.6h-3.1V0.6z"/>
</g>
<g enable-background="new    ">
	<path fill="#A5A5A5" d="M172.4,0.5h0.6l6.6,14h-0.7l-1.9-4h-8.6l-1.9,4h-0.7L172.4,0.5z M176.7,9.8l-4-8.5l-4,8.5H176.7z"/>
	<path fill="#A5A5A5" d="M182.4,0.6h0.6l10.2,12.7V0.6h0.7v13.9h-0.5L183.1,1.7v12.8h-0.7V0.6z"/>
	<path fill="#A5A5A5" d="M197.4,7.6L197.4,7.6c0-3.8,2.7-7.2,6.9-7.2c2.2,0,3.5,0.7,4.9,1.8l-0.4,0.5c-1.2-1-2.5-1.7-4.5-1.7
		c-3.7,0-6.1,3.1-6.1,6.5v0c0,3.6,2.3,6.6,6.2,6.6c1.9,0,3.6-0.9,4.7-1.8V8.1h-4.9V7.4h5.6v5.2c-1.3,1.2-3.2,2.1-5.4,2.1
		C199.9,14.7,197.4,11.5,197.4,7.6z"/>
</g>
</svg>
